<?xml version="1.0" standalone="no"?>
<!DOCTYPE svg PUBLIC "-//W3C//DTD SVG 20010904//EN"
 "http://www.w3.org/TR/2001/REC-SVG-20010904/DTD/svg10.dtd">
<svg version="1.0" xmlns="http://www.w3.org/2000/svg"
 width="192.000000pt" height="192.000000pt" viewBox="0 0 192.000000 192.000000"
 preserveAspectRatio="xMidYMid meet">
<metadata>
Created by potrace 1.14, written by Peter Selinger 2001-2017
</metadata>
<g transform="translate(0.000000,192.000000) scale(0.100000,-0.100000)"
fill="#000000" stroke="none">
<path d="M0 961 l0 -960 308 4 c169 1 312 3 319 4 6 0 14 18 16 39 l4 37 1
-38 c3 -54 26 -43 30 14 3 46 22 81 22 41 0 -24 7 -27 30 -11 11 8 12 12 3 16
-18 7 -16 23 1 23 16 0 27 40 23 86 -3 31 -3 31 48 33 27 2 74 4 103 5 39 2
52 -1 52 -11 0 -8 -5 -11 -11 -7 -9 5 -10 -1 -5 -20 4 -15 2 -26 -4 -26 -5 0
-10 -11 -10 -25 0 -14 -6 -28 -14 -31 -11 -4 -11 -13 -4 -45 6 -21 15 -39 20
-39 5 0 6 -9 3 -20 -6 -18 -2 -20 34 -20 25 0 42 5 43 13 0 6 1 19 2 27 2 24
29 17 31 -7 3 -40 15 -38 15 3 0 21 7 48 15 58 14 18 15 15 15 -37 0 -56 0
-57 29 -57 28 0 29 2 24 35 -4 27 -2 35 10 35 17 0 29 -44 15 -58 -13 -13 29
-15 412 -15 l335 -1 3 957 2 957 -960 0 -960 0 0 -959z m628 683 c12 -4 22
-13 22 -21 0 -8 -4 -11 -10 -8 -5 3 -10 1 -10 -4 0 -6 5 -11 10 -11 19 0 10
-21 -12 -31 l-23 -10 22 5 c12 2 21 -1 20 -7 -3 -16 72 -29 126 -22 29 3 47 2
47 -5 0 -5 -9 -10 -19 -10 -11 0 -27 -3 -36 -6 -13 -5 -14 -8 -3 -15 8 -6 -2
-8 -27 -8 -22 0 -34 3 -27 6 6 2 12 8 12 11 0 10 -77 9 -86 0 -4 -5 -12 -8
-18 -8 -6 0 -3 5 7 11 23 13 22 29 -3 29 -18 0 -25 -10 -21 -32 0 -5 -4 -8 -9
-8 -6 0 -8 10 -4 24 4 16 1 25 -10 29 -9 4 -16 18 -16 33 0 19 4 25 15 20 11
-4 15 1 15 19 0 27 3 28 38 19z m-30 -290 c-9 -9 -24 -14 -32 -11 -27 11 -17
27 16 27 30 0 31 -1 16 -16z m499 -36 c-3 -8 -6 -5 -6 6 -1 11 2 17 5 13 3 -3
4 -12 1 -19z m-635 -20 c-7 -7 -12 -8 -12 -2 0 14 12 26 19 19 2 -3 -1 -11 -7
-17z m118 4 c0 -5 -16 -16 -36 -25 -25 -12 -34 -22 -30 -33 4 -11 -1 -14 -19
-11 -43 5 -35 27 20 55 44 22 65 26 65 14z m546 -32 c8 0 14 -6 13 -12 -4 -31
2 -58 16 -72 21 -21 19 -39 -5 -33 -10 3 -21 0 -23 -6 -4 -12 -146 -17 -153
-5 -3 4 4 8 14 8 11 0 22 7 26 15 3 8 14 15 23 15 22 0 63 27 63 41 0 15 -26
10 -53 -11 -30 -24 -37 -25 -37 -5 0 9 11 20 24 25 13 5 29 17 35 27 9 16 12
16 21 3 8 -12 10 -9 11 15 1 17 3 22 6 13 2 -10 11 -18 19 -18z m-456 -5 c0
-2 -7 -5 -15 -9 -9 -3 -15 0 -15 9 0 9 6 12 15 9 8 -4 15 -7 15 -9z m-80 -24
c0 -11 -45 -51 -57 -51 -17 0 -17 19 2 40 13 14 55 23 55 11z m75 -31 c3 -5 1
-10 -4 -10 -6 0 -11 5 -11 10 0 6 2 10 4 10 3 0 8 -4 11 -10z m-55 -17 c-1
-18 -19 -35 -29 -28 -9 5 -9 10 0 21 12 15 29 19 29 7z m214 -18 c19 -19 26
-19 41 1 6 9 20 15 30 13 18 -4 18 -5 1 -21 -27 -28 -91 -41 -132 -28 -37 12
-49 24 -39 40 10 15 82 12 99 -5z m-190 -57 c-3 -4 2 -8 10 -8 9 0 16 5 16 10
0 6 7 10 15 10 8 0 15 -4 15 -10 0 -5 7 -10 15 -10 18 0 19 -12 4 -27 -8 -8
-8 -13 1 -18 7 -4 13 1 17 13 6 24 30 19 51 -10 16 -22 48 -24 56 -3 3 10 19
15 45 15 22 0 41 4 43 9 2 5 21 12 43 15 22 3 34 3 26 0 -11 -5 -11 -8 0 -15
10 -6 12 -38 10 -133 -2 -103 1 -129 15 -150 10 -16 12 -26 5 -26 -6 0 -11 -7
-11 -15 0 -10 -12 -15 -37 -17 l-38 -1 45 -7 45 -7 -53 -1 c-51 -2 -52 -3 -41
-23 11 -21 9 -22 -19 -16 -24 5 -31 2 -35 -14 -5 -19 -7 -19 -34 -6 -15 8 -44
18 -63 22 -19 4 -38 13 -42 19 -5 7 -8 5 -8 -6 0 -11 8 -18 20 -18 11 0 20 -5
20 -11 0 -6 -8 -8 -17 -5 -10 2 -28 7 -40 11 -14 4 -23 2 -23 -4 0 -6 -4 -11
-8 -11 -5 0 -9 23 -9 50 -1 34 2 48 9 44 7 -5 8 -2 2 7 -8 14 -8 25 2 86 l5
32 44 -16 c32 -11 45 -20 45 -34 0 -38 28 -19 39 27 7 25 19 57 28 70 14 22
14 24 -1 24 -9 0 -19 -7 -22 -15 -8 -19 -40 -20 -47 -1 -7 17 -58 27 -74 15
-7 -7 -14 -6 -18 1 -4 7 -11 8 -18 2 -14 -11 -46 -7 -61 8 -7 7 -7 16 2 31 8
12 11 23 8 26 -3 3 -13 -9 -24 -26 -13 -22 -22 -27 -29 -20 -8 8 -6 19 5 40
16 27 16 29 -3 43 -19 14 -19 15 19 51 29 27 41 33 47 24 4 -7 5 -17 3 -21z
m323 7 c2 -6 -8 -12 -22 -13 -18 -1 -23 2 -18 14 6 16 34 16 40 -1z m299 -59
c16 -16 19 -40 4 -31 -5 3 -10 0 -10 -7 0 -20 -20 13 -20 35 0 21 7 22 26 3z
m-709 -53 c-3 -3 -13 -3 -22 -1 -14 3 -14 5 2 25 18 22 18 22 21 2 2 -11 1
-23 -1 -26z m634 2 c7 19 8 19 8 -2 1 -24 -41 -71 -47 -53 -2 5 -12 10 -23 10
-27 0 -24 15 9 38 24 19 28 19 36 4 8 -14 10 -14 17 3z m-621 -76 c-7 -11 -14
-18 -17 -15 -8 8 5 36 17 36 7 0 7 -6 0 -21z m43 -6 c-5 -13 -2 -15 20 -9 20
5 27 3 27 -8 0 -10 -10 -14 -35 -13 -19 1 -35 4 -35 7 1 20 14 49 21 45 4 -3
5 -13 2 -22z m454 5 c-3 -8 -6 -5 -6 6 -1 11 2 17 5 13 3 -3 4 -12 1 -19z
m-376 -44 c-9 -28 -9 -29 -10 -3 -1 14 2 29 6 32 11 12 13 2 4 -29z m49 -234
c0 -5 -5 -10 -11 -10 -5 0 -7 5 -4 10 3 6 8 10 11 10 2 0 4 -4 4 -10z m-43
-16 c-3 -3 -12 -4 -19 -1 -8 3 -5 6 6 6 11 1 17 -2 13 -5z m83 -4 c0 -5 -4
-10 -9 -10 -6 0 -13 5 -16 10 -3 6 1 10 9 10 9 0 16 -4 16 -10z m100 0 c0 -5
-7 -7 -15 -4 -8 4 -15 8 -15 10 0 2 7 4 15 4 8 0 15 -4 15 -10z m-145 -10 c3
-5 2 -10 -4 -10 -5 0 -13 5 -16 10 -3 6 -2 10 4 10 5 0 13 -4 16 -10z m-429
-28 c-22 -5 -30 3 -21 18 5 8 11 7 22 -2 15 -12 14 -13 -1 -16z m474 2 c0 -2
-7 -4 -15 -4 -8 0 -15 4 -15 10 0 5 7 7 15 4 8 -4 15 -8 15 -10z m-490 -39 c0
-8 -9 -15 -20 -15 -11 0 -20 7 -20 15 0 8 9 15 20 15 11 0 20 -7 20 -15z m534
-42 c8 -25 7 -33 -1 -30 -5 1 -7 5 -5 10 1 4 -5 7 -13 7 -8 0 -15 7 -15 15 0
21 27 19 34 -2z m823 -9 c-3 -3 -12 -4 -19 -1 -8 3 -5 6 6 6 11 1 17 -2 13 -5z
m-528 -40 c21 -11 30 -21 27 -31 -3 -8 -6 -20 -6 -26 0 -30 -154 -64 -188 -43
-6 3 -30 2 -54 -3 -27 -6 -47 -6 -52 0 -6 6 -4 9 5 9 8 0 34 9 57 20 22 11 46
20 52 20 5 0 10 7 10 15 0 9 -9 15 -25 15 -14 0 -25 5 -25 10 0 6 9 10 19 10
11 0 23 5 26 10 10 16 118 12 154 -6z m-869 -20 c0 -2 -11 -4 -25 -4 -14 0
-25 4 -25 9 0 4 11 6 25 3 14 -2 25 -6 25 -8z m1410 6 c0 -5 -2 -10 -4 -10 -3
0 -8 5 -11 10 -3 6 -1 10 4 10 6 0 11 -4 11 -10z m27 -56 c-3 -3 -12 -4 -19
-1 -8 3 -5 6 6 6 11 1 17 -2 13 -5z m-1451 -81 c-6 -6 -36 9 -36 18 0 5 9 4
20 -3 10 -7 18 -14 16 -15z m744 23 c0 -3 -4 -8 -10 -11 -5 -3 -10 -1 -10 4 0
6 5 11 10 11 6 0 10 -2 10 -4z m158 -30 c-10 -7 -18 -17 -18 -23 0 -22 -26
-60 -49 -71 -36 -17 -47 -15 -29 6 8 9 18 29 21 43 5 18 18 31 44 42 48 19 52
20 31 3z m567 -26 c3 -6 -4 -10 -17 -10 -18 0 -20 2 -8 10 19 12 18 12 25 0z
m-1018 -57 c-3 -10 -5 -4 -5 12 0 17 2 24 5 18 2 -7 2 -21 0 -30z m50 -35 c-3
-8 -6 -5 -6 6 -1 11 2 17 5 13 3 -3 4 -12 1 -19z m234 -34 c-5 -16 -10 -21
-10 -12 -1 18 10 51 15 45 2 -1 -1 -16 -5 -33z m754 16 c-3 -5 -10 -10 -16
-10 -5 0 -9 5 -9 10 0 6 7 10 16 10 8 0 12 -4 9 -10z m-981 -15 c3 -8 1 -15
-4 -15 -6 0 -10 7 -10 15 0 8 2 15 4 15 2 0 6 -7 10 -15z m306 -5 c0 -19 -11
-26 -23 -14 -8 8 3 34 14 34 5 0 9 -9 9 -20z m-81 -51 c-8 -5 -21 -9 -29 -9
-12 1 -11 4 4 15 10 8 23 12 29 8 5 -3 3 -9 -4 -14z m83 9 c7 -19 -2 -38 -16
-38 -9 0 -12 9 -8 25 5 27 17 33 24 13z m698 -47 c0 -10 -24 -21 -43 -21 -7 0
-3 7 7 15 22 17 36 19 36 6z"/>
<path d="M1115 1210 c-3 -5 -1 -10 4 -10 6 0 11 5 11 10 0 6 -2 10 -4 10 -3 0
-8 -4 -11 -10z"/>
<path d="M636 1074 c-4 -9 -4 -19 -1 -22 2 -3 7 3 11 12 4 9 4 19 1 22 -2 3
-7 -3 -11 -12z"/>
<path d="M676 1075 c-3 -8 -1 -15 4 -15 6 0 10 7 10 15 0 8 -2 15 -4 15 -2 0
-6 -7 -10 -15z"/>
<path d="M640 1000 c-7 -17 -10 -33 -8 -36 3 -3 11 9 17 27 14 42 7 49 -9 9z"/>
<path d="M888 723 c7 -3 16 -2 19 1 4 3 -2 6 -13 5 -11 0 -14 -3 -6 -6z"/>
<path d="M700 710 c0 -5 5 -10 10 -10 6 0 10 5 10 10 0 6 -4 10 -10 10 -5 0
-10 -4 -10 -10z"/>
<path d="M780 710 c0 -5 9 -10 20 -10 11 0 20 5 20 10 0 6 -9 10 -20 10 -11 0
-20 -4 -20 -10z"/>
<path d="M838 693 c7 -3 16 -2 19 1 4 3 -2 6 -13 5 -11 0 -14 -3 -6 -6z"/>
</g>
</svg>
